<?xml version="1.0" encoding="UTF-8" standalone="no"?>
<!-- Generator: Adobe Illustrator 16.0.0, SVG Export Plug-In . SVG Version: 6.00 Build 0)  -->

<svg
   xmlns:dc="http://purl.org/dc/elements/1.1/"
   xmlns:cc="http://creativecommons.org/ns#"
   xmlns:rdf="http://www.w3.org/1999/02/22-rdf-syntax-ns#"
   xmlns:svg="http://www.w3.org/2000/svg"
   xmlns="http://www.w3.org/2000/svg"
   xmlns:sodipodi="http://sodipodi.sourceforge.net/DTD/sodipodi-0.dtd"
   xmlns:inkscape="http://www.inkscape.org/namespaces/inkscape"
   version="1.1"
   id="Capa_1"
   x="0px"
   y="0px"
   width="438.549px"
   height="438.549px"
   viewBox="0 0 438.549 438.549"
   style="enable-background:new 0 0 438.549 438.549;"
   xml:space="preserve"
   inkscape:version="0.91 r13725"
   sodipodi:docname="github-logo.svg"><metadata
     id="metadata4388"><rdf:RDF><cc:Work
         rdf:about=""><dc:format>image/svg+xml</dc:format><dc:type
           rdf:resource="http://purl.org/dc/dcmitype/StillImage" /></cc:Work></rdf:RDF></metadata><defs
     id="defs4386" /><sodipodi:namedview
     pagecolor="#ffffff"
     bordercolor="#666666"
     borderopacity="1"
     objecttolerance="10"
     gridtolerance="10"
     guidetolerance="10"
     inkscape:pageopacity="0"
     inkscape:pageshadow="2"
     inkscape:window-width="1241"
     inkscape:window-height="865"
     id="namedview4384"
     showgrid="false"
     inkscape:zoom="0.76104242"
     inkscape:cx="-204.60854"
     inkscape:cy="154.42102"
     inkscape:window-x="2240"
     inkscape:window-y="175"
     inkscape:window-maximized="0"
     inkscape:current-layer="g4350" /><g
     id="g4350"><path
       d="m 431.21079,5.023515 c 0,0 -167.51205,0.1857313 -207.29805,0.1857313 C 103.76717,5.6310056 6.9645622,5.0579992 6.9645622,5.0579992 L 7.44531,433.28537 l 158.50543,-0.0171 c 0,0 3.711,-7.79699 3.711,-11.21899 0,-0.571 -0.049,-5.708 -0.144,-15.417 -0.098,-9.709 -0.144,-18.179 -0.144,-25.406 l -6.567,1.136 c -4.187,0.767 -9.469,1.092 -15.846,1 -6.374,-0.089 -12.991,-0.757 -19.842,-1.999 -6.854,-1.231 -13.229,-4.086 -19.13,-8.559 -5.898,-4.473 -10.085001,-10.328 -12.560001,-17.556 l -2.855,-6.57 c -1.903,-4.374 -4.899,-9.233 -8.992,-14.559 -4.093,-5.331 -8.232,-8.945 -12.419,-10.848 l -1.999,-1.431 c -1.332,-0.951 -2.568,-2.098 -3.711,-3.429 -1.142,-1.331 -1.997,-2.663 -2.568,-3.997 -0.572,-1.335 -0.098,-2.43 1.427,-3.289 1.525,-0.859 4.281,-1.276 8.28,-1.276 l 5.708,0.853 c 3.807,0.763 8.516,3.042 14.133,6.851 5.614,3.806 10.229001,8.754 13.846001,14.842 4.38,7.806 9.657,13.754 15.846,17.847 6.184,4.093 12.419,6.136 18.699,6.136 6.28,0 11.704,-0.476 16.274,-1.423 4.565,-0.952 8.848,-2.383 12.847,-4.285 1.713,-12.758 6.377,-22.559 13.988,-29.41 -10.848,-1.14 -20.601,-2.857 -29.264,-5.14 -8.658,-2.286 -17.605,-5.996 -26.835,-11.14 -9.235,-5.137 -16.896,-11.516 -22.985,-19.126 -6.090001,-7.614 -11.088001,-17.61 -14.987001,-29.979 -3.901,-12.374 -5.852,-26.648 -5.852,-42.826 0,-23.035 7.52,-42.637 22.557001,-58.817 -7.044001,-17.318 -6.379,-36.732 1.997,-58.240004 5.52,-1.715 13.706,-0.428 24.554,3.853 10.85,4.283004 18.794,7.952004 23.84,10.994004 5.046,3.041 9.089,5.618 12.135,7.708 17.705,-4.947 35.976,-7.421 54.818,-7.421 18.842,0 37.117,2.474 54.823,7.421 l 10.849,-6.849 c 7.419,-4.57 16.18,-8.758 26.262,-12.565004 10.088,-3.805 17.802,-4.853 23.134,-3.138 8.562,21.509004 9.325,40.922004 2.279,58.240004 15.036,16.18 22.559,35.787 22.559,58.817 0,16.178 -1.958,30.497 -5.853,42.966 -3.9,12.471 -8.941,22.457 -15.125,29.979 -6.191,7.521 -13.901,13.85 -23.131,18.986 -9.232,5.14 -18.182,8.85 -26.84,11.136 -8.662,2.286 -18.415,4.004 -29.263,5.146 9.894,8.562 14.842,22.077 14.842,40.539 l 0,60.237 c 0,3.422 3.572,11.21899 3.572,11.21899 l 149.56571,0.26523 z"
       id="path4352"
       inkscape:connector-curvature="0"
       sodipodi:nodetypes="cccccscccccccccccccscccccscccccccscccccscccccscccccssccc"
       style="fill:#000000;fill-opacity:0.80000001" /></g><g
     id="g4354" /><g
     id="g4356" /><g
     id="g4358" /><g
     id="g4360" /><g
     id="g4362" /><g
     id="g4364" /><g
     id="g4366" /><g
     id="g4368" /><g
     id="g4370" /><g
     id="g4372" /><g
     id="g4374" /><g
     id="g4376" /><g
     id="g4378" /><g
     id="g4380" /><g
     id="g4382" /></svg>