<?xml version="1.0" encoding="UTF-8" standalone="no"?>
<!-- Generator: Adobe Illustrator 16.0.0, SVG Export Plug-In . SVG Version: 6.00 Build 0)  -->

<svg
   xmlns:dc="http://purl.org/dc/elements/1.1/"
   xmlns:cc="http://creativecommons.org/ns#"
   xmlns:rdf="http://www.w3.org/1999/02/22-rdf-syntax-ns#"
   xmlns:svg="http://www.w3.org/2000/svg"
   xmlns="http://www.w3.org/2000/svg"
   xmlns:sodipodi="http://sodipodi.sourceforge.net/DTD/sodipodi-0.dtd"
   xmlns:inkscape="http://www.inkscape.org/namespaces/inkscape"
   version="1.1"
   id="Capa_1"
   x="0px"
   y="0px"
   width="430.11301"
   height="430.11801"
   viewBox="0 0 430.11301 430.118"
   xml:space="preserve"
   inkscape:version="0.91 r13725"
   sodipodi:docname="linkedin-logo.svg"><metadata
     id="metadata4268"><rdf:RDF><cc:Work
         rdf:about=""><dc:format>image/svg+xml</dc:format><dc:type
           rdf:resource="http://purl.org/dc/dcmitype/StillImage" /><dc:title></dc:title></cc:Work></rdf:RDF></metadata><defs
     id="defs4266" /><sodipodi:namedview
     pagecolor="#ffffff"
     bordercolor="#666666"
     borderopacity="1"
     objecttolerance="10"
     gridtolerance="10"
     guidetolerance="10"
     inkscape:pageopacity="0"
     inkscape:pageshadow="2"
     inkscape:window-width="1857"
     inkscape:window-height="1056"
     id="namedview4264"
     showgrid="false"
     fit-margin-top="0"
     fit-margin-left="0"
     fit-margin-right="0"
     fit-margin-bottom="0"
     inkscape:zoom="1.5108206"
     inkscape:cx="192.46026"
     inkscape:cy="212.14541"
     inkscape:window-x="63"
     inkscape:window-y="24"
     inkscape:window-maximized="1"
     inkscape:current-layer="Capa_1" /><g
     id="g4231"
     transform="translate(-0.69987005,-0.17002821)"
     style="fill:#000000;fill-opacity:0.80000001"><path
       id="LinkedIn__x28_alt_x29_"
       d="m 428.355,2.6475679 -424.5873241,0 L 3.1577467,427.8105 428.355,427.47043 Z M 130.4,360.038 l -64.987,0 0,-194.193 64.987,0 z m -32.487,-220.723 -0.437,0 c -21.793,0 -35.92,-14.904 -35.92,-33.563 0,-19.035 14.542,-33.535 36.767,-33.535 22.227,0 35.899,14.496 36.331,33.535 0,18.663 -14.099,33.563 -36.741,33.563 z m 266.746,220.723 -64.966,0 0,-103.9 c 0,-26.107 -9.413,-43.921 -32.907,-43.921 -17.973,0 -28.642,12.018 -33.327,23.621 -1.736,4.144 -2.166,9.94 -2.166,15.728 l 0,108.468 -64.954,0 c 0,0 0.85,-175.979 0,-194.192 l 64.964,0 0,27.531 c 8.624,-13.229 24.035,-32.1 58.534,-32.1 42.76,0 74.822,27.739 74.822,87.414 z M 230.883,193.99 c 0.111,-0.182 0.266,-0.401 0.42,-0.614 l 0,0.614 z"
       inkscape:connector-curvature="0"
       sodipodi:nodetypes="ccccccccccsssscsccsscscccccssccccc"
       style="fill:#000000;fill-opacity:0.80000001" /></g><g
     id="g4234"
     transform="translate(-0.002,0)" /><g
     id="g4236"
     transform="translate(-0.002,0)" /><g
     id="g4238"
     transform="translate(-0.002,0)" /><g
     id="g4240"
     transform="translate(-0.002,0)" /><g
     id="g4242"
     transform="translate(-0.002,0)" /><g
     id="g4244"
     transform="translate(-0.002,0)" /><g
     id="g4246"
     transform="translate(-0.002,0)" /><g
     id="g4248"
     transform="translate(-0.002,0)" /><g
     id="g4250"
     transform="translate(-0.002,0)" /><g
     id="g4252"
     transform="translate(-0.002,0)" /><g
     id="g4254"
     transform="translate(-0.002,0)" /><g
     id="g4256"
     transform="translate(-0.002,0)" /><g
     id="g4258"
     transform="translate(-0.002,0)" /><g
     id="g4260"
     transform="translate(-0.002,0)" /><g
     id="g4262"
     transform="translate(-0.002,0)" /></svg>